<?xml version="1.0" encoding="UTF-8" standalone="no"?>
<!-- Created with Inkscape (http://www.inkscape.org/) -->

<svg
   width="794"
   height="454"
   viewBox="0 0 210.07916 120.12084"
   version="1.1"
   id="svg5"
   inkscape:version="1.1.2 (b8e25be833, 2022-02-05)"
   sodipodi:docname="trouverLogoPlatinum.svg"
   xmlns:inkscape="http://www.inkscape.org/namespaces/inkscape"
   xmlns:sodipodi="http://sodipodi.sourceforge.net/DTD/sodipodi-0.dtd"
   xmlns="http://www.w3.org/2000/svg"
   xmlns:svg="http://www.w3.org/2000/svg">
  <sodipodi:namedview
     id="namedview7"
     pagecolor="#ffffff"
     bordercolor="#666666"
     borderopacity="1.0"
     inkscape:pageshadow="2"
     inkscape:pageopacity="0.0"
     inkscape:pagecheckerboard="0"
     inkscape:document-units="mm"
     showgrid="false"
     inkscape:zoom="0.98520767"
     inkscape:cx="356.77757"
     inkscape:cy="148.19211"
     inkscape:window-width="1920"
     inkscape:window-height="986"
     inkscape:window-x="-11"
     inkscape:window-y="-11"
     inkscape:window-maximized="1"
     inkscape:current-layer="layer1"
     units="px" />
  <defs
     id="defs2">
    <rect
       x="565.56616"
       y="57.417889"
       width="212.44618"
       height="139.23837"
       id="rect13879" />
    <rect
       x="600.01691"
       y="67.466019"
       width="88.997726"
       height="152.15739"
       id="rect10279" />
    <clipPath
       clipPathUnits="userSpaceOnUse"
       id="clipEmfPath1">
      <path
         d="M 0,0 H 231.96724 V 76.512756 H 0 Z"
         id="path854" />
    </clipPath>
    <pattern
       id="EMFhbasepattern"
       patternUnits="userSpaceOnUse"
       width="6"
       height="6"
       x="0"
       y="0" />
  </defs>
  <g
     inkscape:label="Camada 1"
     inkscape:groupmode="layer"
     id="layer1">
    <g
       id="g972"
       transform="matrix(0.40896073,0,0,0.38652097,0.39813818,-49.038286)">
      <path
         class="st0"
         d="m 512,282.163 c -0.881,-1.49 -21.826,-38.71 -63.998,-76.621 -21.106,-18.932 -47.584,-38.03 -79.667,-52.494 -32.041,-14.455 -69.743,-24.183 -112.337,-24.162 -42.595,-0.014 -80.296,9.707 -112.341,24.162 C 95.537,174.77 60.031,206.801 36.327,233.292 12.627,259.846 0.644,281.037 0,282.163 l 29.331,16.484 13.676,7.749 0.024,-0.042 0.007,-0.014 c 0.895,-1.629 20.324,-34.688 56.487,-66.326 18.068,-15.848 40.244,-31.331 66.274,-42.786 26.061,-11.456 55.91,-18.96 90.199,-18.974 35.104,0.014 65.561,7.881 92.056,19.798 39.685,17.848 70.324,45.171 90.808,68.131 10.245,11.462 17.938,21.785 22.98,29.1 2.525,3.657 4.385,6.566 5.574,8.49 0.594,0.966 1.02,1.679 1.286,2.119 l 0.252,0.448 0.042,0.063 9.707,-5.518 -9.734,5.469 z"
         id="path968"
         style="fill:#e5e5e5;fill-opacity:1" />
      <path
         class="st0"
         d="m 255.999,210.339 c -47.71,0 -86.388,38.674 -86.388,86.391 0,47.71 38.678,86.384 86.388,86.384 47.71,0 86.388,-38.674 86.388,-86.384 -10e-4,-47.716 -38.679,-86.391 -86.388,-86.391 z"
         id="path970"
         style="fill:#e5e5e5;fill-opacity:1" />
      <path
         style="opacity:0;fill:#e5e5e5;stroke-width:1.01501;fill-opacity:1"
         d="m 723.78314,257.16727 c -17.41735,-27.5309 -56.98636,-70.3601 -87.782,-95.01458 C 557.4708,99.282597 475.80196,71.603691 379.6154,75.259364 302.00108,78.209179 226.60294,107.57011 160.38385,160.63073 c -33.43614,26.79201 -68.086663,63.83401 -88.297613,94.39165 -2.123096,3.20998 -4.219658,5.83633 -4.659026,5.83633 -0.657092,0 -63.5183754,-33.12371 -64.7710764,-34.13004 C 2.0082654,226.20822 15.121281,207.25014 24.071617,195.76735 39.338472,176.1808 52.845096,161.1199 72.220352,142.07787 114.37714,100.64614 154.17237,72.262871 203.72401,48.285136 239.95576,30.752815 270.82129,20.170391 307.54937,12.68801 385.6991,-3.2329408 466.04041,1.7617309 539.98768,27.138273 c 80.8386,27.741447 156.23759,80.309107 215.26113,150.078557 15.97114,18.87888 35.95494,46.084 35.95494,48.94758 0,0.54248 -13.58851,8.18724 -30.19668,16.98834 -16.60818,8.80109 -31.11852,16.59693 -32.24521,17.32408 -1.87154,1.20785 -2.3017,0.92191 -4.97872,-3.30956 z"
         id="path1117"
         transform="matrix(0.64696513,0,0,0.68452517,-0.97353646,126.87096)" />
      <path
         style="opacity:0;fill:#e5e5e5;fill-opacity:1;stroke-width:1.01501"
         d="m 375.04783,372.09754 c -30.76947,-5.46112 -56.46111,-19.03253 -76.89435,-40.61883 -35.80187,-37.82221 -43.86007,-90.84933 -20.83476,-137.10345 17.4876,-35.12975 53.23772,-61.56892 94.17656,-69.64873 10.90492,-2.15222 42.38821,-1.88898 53.28826,0.44556 27.00032,5.78285 50.27417,18.30985 69.04559,37.16334 17.74966,17.82727 28.62527,37.81885 34.08678,62.65848 2.41328,10.97595 2.40365,35.4201 -0.0183,46.44283 -11.03714,50.23185 -49.6311,87.68893 -102.60655,99.58402 -9.83642,2.20867 -40.1995,2.85939 -50.24322,1.07678 z m 90.6385,-161.33085 c 4.44119,-1.85565 9.52287,-7.86222 10.8634,-12.84059 4.14696,-15.40062 -11.41299,-28.94649 -26.16968,-22.78227 -12.73208,5.3185 -16.0547,22.3788 -6.15392,31.59793 5.72175,5.32783 14.43205,6.96147 21.4602,4.02493 z"
         id="path1269"
         transform="matrix(0.64696513,0,0,0.68452517,-0.97353646,126.87096)" />
    </g>
    <text
       xml:space="preserve"
       style="font-style:normal;font-variant:normal;font-weight:normal;font-stretch:normal;font-size:15.698px;line-height:1.25;font-family:'Bauhaus 93';-inkscape-font-specification:'Bauhaus 93, ';fill:#e5e5e5;fill-opacity:1;stroke:none;stroke-width:0.392452"
       x="67.505959"
       y="111.54006"
       id="text6221"
       transform="scale(0.94344118,1.0599495)"><tspan
         sodipodi:role="line"
         id="tspan6219"
         style="font-style:normal;font-variant:normal;font-weight:normal;font-stretch:normal;font-family:'Bauhaus 93';-inkscape-font-specification:'Bauhaus 93, ';stroke-width:0.392452;fill:#e5e5e5;fill-opacity:1"
         x="67.505959"
         y="111.54006">T R O U V E R</tspan></text>
    <text
       xml:space="preserve"
       transform="scale(0.26458333)"
       id="text10277"
       style="font-style:normal;font-weight:normal;font-size:40px;line-height:1.25;font-family:sans-serif;white-space:pre;shape-inside:url(#rect10279);fill:#000000;fill-opacity:1;stroke:none" />
    <text
       xml:space="preserve"
       transform="scale(0.26458333)"
       id="text13877"
       style="font-style:normal;font-weight:normal;font-size:40px;line-height:1.25;font-family:sans-serif;white-space:pre;shape-inside:url(#rect13879);fill:#000000;fill-opacity:1;stroke:none" />
    <ellipse
       style="opacity:0;fill:#ffffff;stroke-width:0.264583"
       id="path35803"
       cx="97.351509"
       cy="61.23074"
       rx="10.607958"
       ry="8.0566769" />
    <ellipse
       style="opacity:0;fill:#1a1a1a;stroke-width:0.264583"
       id="path35851"
       cx="31.823875"
       cy="55.322514"
       rx="12.219293"
       ry="7.5195651" />
    <ellipse
       style="opacity:0;fill:#1a1a1a;stroke-width:0.264583"
       id="path35875"
       cx="34.912266"
       cy="55.322514"
       rx="4.2968941"
       ry="0.8056677" />
    <path
       style="opacity:0;fill:#1a1a1a;stroke-width:0.264583"
       id="path35877"
       sodipodi:type="arc"
       sodipodi:cx="37.463547"
       sodipodi:cy="-1.074224"
       sodipodi:rx="22.155861"
       sodipodi:ry="6.1767855"
       sodipodi:start="0"
       sodipodi:end="0.024647629"
       sodipodi:arc-type="slice"
       d="m 59.619408,-1.074224 a 22.155861,6.1767855 0 0 1 -0.0067,0.15222771 L 37.463547,-1.074224 Z" />
    <path
       d="m 121.07182,46.051952 c 2.76124,-0.0315 5.02519,2.18142 5.05668,4.94266 0.0315,2.76124 -2.18142,5.02519 -4.94267,5.05667 -2.76124,0.0315 -5.02519,-2.18142 -5.05667,-4.94266 -0.0315,-2.76124 2.18142,-5.02519 4.94266,-5.05667 z m 0.0285,2.49983 c -1.38062,0.0157 -2.48707,1.14772 -2.47133,2.52834 0.0157,1.38062 1.14772,2.48707 2.52834,2.47133 1.38062,-0.0157 2.48707,-1.14772 2.47133,-2.52834 -0.0157,-1.38062 -1.14772,-2.48707 -2.52834,-2.47133 z"
       id="Combined-Shape"
       style="fill:#212738;fill-rule:evenodd;stroke:none;stroke-width:0.0234374;fill-opacity:1" />
  </g>
  <style
     type="text/css"
     id="style966">
	.st0{fill:#000000;}
</style>
</svg>
